<svg width="56" height="13" viewBox="0 0 56 13" fill="none" xmlns="http://www.w3.org/2000/svg">
<path d="M8.096 0.848V2.032H5.056V12H3.6V2.032H0.544V0.848H8.096ZM11.3443 2.032V5.76H15.4083V6.96H11.3443V10.8H15.8883V12H9.88825V0.832H15.8883V2.032H11.3443ZM26.8594 12H25.4034L19.5474 3.12V12H18.0914V0.832H19.5474L25.4034 9.696V0.832H26.8594V12ZM33.6134 6.416L36.0134 12H34.7494L32.7334 7.328L29.2134 12H27.9654L32.3334 6.384L29.9334 0.815999H31.1974L33.1974 5.456L36.7494 0.815999H38.0134L33.6134 6.416ZM44.5728 12L41.9168 7.44H40.1568V12H38.7008V0.848H42.3008C43.1434 0.848 43.8528 0.992 44.4288 1.28C45.0154 1.568 45.4528 1.95733 45.7408 2.448C46.0288 2.93867 46.1728 3.49867 46.1728 4.128C46.1728 4.896 45.9488 5.57333 45.5008 6.16C45.0634 6.74667 44.4021 7.136 43.5168 7.328L46.3168 12H44.5728ZM40.1568 6.272H42.3008C43.0901 6.272 43.6821 6.08 44.0768 5.696C44.4714 5.30133 44.6688 4.77867 44.6688 4.128C44.6688 3.46667 44.4714 2.95467 44.0768 2.592C43.6928 2.22933 43.1008 2.048 42.3008 2.048H40.1568V6.272ZM51.9711 12.112C51.2351 12.112 50.5738 11.984 49.9871 11.728C49.4111 11.4613 48.9578 11.0987 48.6271 10.64C48.2965 10.1707 48.1258 9.632 48.1151 9.024H49.6671C49.7205 9.54667 49.9338 9.98933 50.3071 10.352C50.6911 10.704 51.2458 10.88 51.9711 10.88C52.6645 10.88 53.2085 10.7093 53.6031 10.368C54.0085 10.016 54.2111 9.568 54.2111 9.024C54.2111 8.59733 54.0938 8.25067 53.8591 7.984C53.6245 7.71733 53.3311 7.51467 52.9791 7.376C52.6271 7.23733 52.1525 7.088 51.5551 6.928C50.8191 6.736 50.2271 6.544 49.7791 6.352C49.3418 6.16 48.9631 5.86133 48.6431 5.456C48.3338 5.04 48.1791 4.48533 48.1791 3.792C48.1791 3.184 48.3338 2.64533 48.6431 2.176C48.9525 1.70667 49.3845 1.344 49.9391 1.088C50.5045 0.831999 51.1498 0.704 51.8751 0.704C52.9205 0.704 53.7738 0.965333 54.4351 1.488C55.1071 2.01067 55.4858 2.704 55.5711 3.568H53.9711C53.9178 3.14133 53.6938 2.768 53.2991 2.448C52.9045 2.11733 52.3818 1.952 51.7311 1.952C51.1231 1.952 50.6271 2.112 50.2431 2.432C49.8591 2.74133 49.6671 3.17867 49.6671 3.744C49.6671 4.14933 49.7791 4.48 50.0031 4.736C50.2378 4.992 50.5205 5.18933 50.8511 5.328C51.1925 5.456 51.6671 5.60533 52.2751 5.776C53.0111 5.97867 53.6031 6.18133 54.0511 6.384C54.4991 6.576 54.8831 6.88 55.2031 7.296C55.5231 7.70133 55.6831 8.256 55.6831 8.96C55.6831 9.504 55.5391 10.016 55.2511 10.496C54.9631 10.976 54.5365 11.3653 53.9711 11.664C53.4058 11.9627 52.7391 12.112 51.9711 12.112Z" fill="white"/>
</svg>
